<?xml version="1.0" standalone="no"?>
<!DOCTYPE svg PUBLIC "-//W3C//DTD SVG 20010904//EN"
 "http://www.w3.org/TR/2001/REC-SVG-20010904/DTD/svg10.dtd">
<svg version="1.0" xmlns="http://www.w3.org/2000/svg"
 width="260.000000pt" height="260.000000pt" viewBox="0 0 260.000000 260.000000"
 preserveAspectRatio="xMidYMid meet">
<metadata>
Created by potrace 1.14, written by Peter Selinger 2001-2017
</metadata>
<g transform="translate(0.000000,260.000000) scale(0.100000,-0.100000)"
fill="#000000" stroke="none">
<path d="M0 2373 l0 -228 24 58 c75 181 204 315 361 374 l60 22 -222 0 -223 1
0 -227z"/>
<path d="M730 2569 c44 -23 71 -45 94 -76 24 -34 32 -41 34 -26 2 10 8 42 13
71 l10 52 195 0 c172 0 194 -2 194 -16 0 -9 -43 -258 -95 -554 -52 -296 -95
-540 -95 -544 0 -3 -90 -6 -200 -6 l-200 0 5 23 c3 12 9 43 14 69 l8 47 -45
-39 c-162 -143 -428 -153 -566 -22 -21 20 -51 57 -67 81 l-29 45 0 -837 0
-837 410 0 c226 0 410 2 410 5 0 12 191 1081 196 1098 5 15 23 17 201 17 l196
0 -7 -42 c-4 -24 -10 -54 -13 -67 -6 -24 -4 -23 38 10 101 80 180 109 302 109
147 0 255 -51 312 -146 l31 -51 57 53 c33 31 92 71 144 96 l86 43 119 0 118 0
0 738 0 737 -967 0 -966 0 63 -31z"/>
<path d="M534 2246 c-89 -39 -148 -131 -159 -247 -6 -55 -3 -70 17 -108 30
-59 65 -83 127 -89 148 -14 265 114 266 290 0 74 -16 105 -75 146 -39 26 -125
30 -176 8z"/>
<path d="M1465 778 c-48 -17 -94 -56 -116 -99 -13 -26 -39 -149 -74 -347 -30
-169 -55 -313 -55 -320 0 -10 40 -12 182 -10 l183 3 52 290 c59 331 64 399 31
440 -39 50 -128 69 -203 43z"/>
<path d="M2203 766 c-90 -42 -97 -60 -159 -408 -30 -167 -57 -315 -60 -331
l-6 -27 185 0 184 0 15 83 c9 45 35 193 59 328 l43 247 -18 47 c-15 38 -26 51
-60 66 -57 26 -120 24 -183 -5z"/>
</g>
</svg>
